<svg version="1.1" id="Layer_1" xmlns="http://www.w3.org/2000/svg" xmlns:xlink="http://www.w3.org/1999/xlink" x="0px" y="0px"
	 width="100%" viewBox="0 0 512 512" enable-background="new 0 0 512 512" xml:space="preserve">
<path fill="#000000" opacity="1.000000" stroke="none" 
	d="
M287.000000,513.000000 
	C191.356552,513.000000 96.213104,513.000000 1.034826,513.000000 
	C1.034826,342.398193 1.034826,171.796371 1.034826,1.097280 
	C171.560135,1.097280 342.120331,1.097280 512.840271,1.097280 
	C512.840271,171.666550 512.840271,342.333252 512.840271,513.000000 
	C437.796356,513.000000 362.648163,513.000000 287.000000,513.000000 
M353.090424,248.370468 
	C352.285645,249.472717 351.480835,250.574966 350.221252,252.300125 
	C347.926178,243.584381 345.964844,235.687637 343.736115,227.867096 
	C342.668884,224.122223 339.902557,222.157593 335.918976,222.034637 
	C331.791321,221.907227 328.925201,223.659348 327.280090,227.497025 
	C317.316864,250.739273 307.339417,273.975464 297.338867,297.201660 
	C294.670349,303.399231 291.904297,309.554779 288.622681,317.001129 
	C286.804688,310.292236 285.396637,305.031555 283.952393,299.780853 
	C281.569641,291.118347 279.246552,282.437988 276.727020,273.815216 
	C275.697418,270.291504 273.040192,267.719849 269.395264,268.244415 
	C266.613617,268.644775 263.497437,270.233215 261.582336,272.278412 
	C259.024994,275.009521 257.427399,278.660614 255.519577,281.975281 
	C241.249405,306.768219 226.999924,331.573090 212.768784,356.388458 
	C212.235367,357.318604 211.956528,358.394745 211.559036,359.402832 
	C211.038513,358.972717 210.518005,358.542603 209.997482,358.112457 
	C209.997482,356.124969 209.997574,354.137482 209.997482,352.149994 
	C209.995880,317.652252 210.119003,283.153320 209.791687,248.658676 
	C209.760376,245.358170 207.720673,241.090546 205.183578,239.046722 
	C201.926285,236.422760 197.514954,237.837860 194.111374,240.484650 
	C187.423019,245.685852 180.865082,251.056519 174.128922,256.194153 
	C140.026321,282.203949 105.871269,308.144958 71.760124,334.143555 
	C52.456390,348.856384 33.188667,363.616608 13.933821,378.393372 
	C8.830057,382.310181 7.386694,387.839020 10.297891,391.658997 
	C13.542617,395.916626 19.382538,395.930817 24.548103,391.951569 
	C45.354988,375.922943 66.186920,359.926544 87.059784,343.983917 
	C115.734688,322.082062 144.453537,300.237732 173.157257,278.373596 
	C179.303360,273.692017 185.465164,269.031036 192.583298,263.629333 
	C192.767914,266.940125 192.983185,269.012054 192.984268,271.084106 
	C193.005402,311.414795 193.053436,351.745667 192.938187,392.076019 
	C192.923523,397.209076 194.895111,400.429962 199.776245,401.638062 
	C204.255676,402.746704 207.075485,400.166260 209.124908,396.628876 
	C222.881409,372.884735 236.584061,349.109375 250.326035,325.356842 
	C255.208176,316.918182 260.151276,308.514862 265.646057,299.102783 
	C266.701508,302.241730 267.480743,304.218994 268.033173,306.257690 
	C271.471924,318.948242 274.875824,331.648346 278.255646,344.354767 
	C279.377319,348.571564 281.879242,350.837463 286.399567,351.020721 
	C290.939087,351.204773 293.475403,348.902954 295.148376,345.025330 
	C304.902466,322.417389 314.671417,299.815765 324.473206,277.228455 
	C327.228668,270.878815 330.111542,264.584412 333.557404,256.874207 
	C335.665955,264.703064 336.964050,271.224701 339.294159,277.353973 
	C340.253967,279.878632 343.152283,282.646271 345.686432,283.301483 
	C347.965912,283.890869 351.307800,282.235260 353.520752,280.648834 
	C355.410858,279.293854 356.463928,276.689392 357.713501,274.536743 
	C363.560120,264.465240 369.341888,254.356110 375.155518,244.265442 
	C389.521545,219.330475 403.877502,194.389679 418.269196,169.469498 
	C423.386322,160.608856 428.594849,151.800964 434.392426,141.890717 
	C435.468506,145.580933 436.230927,148.056320 436.910614,150.554245 
	C438.508514,156.426544 442.641266,159.134293 447.955322,157.744217 
	C452.277527,156.613617 454.615295,151.804794 453.302582,146.426590 
	C450.973602,136.884644 448.595825,127.354088 446.154938,117.840202 
	C444.666901,112.040222 440.418854,109.506638 434.486847,110.932213 
	C424.937073,113.227196 415.403870,115.595230 405.893158,118.046844 
	C400.372925,119.469818 397.483459,123.641373 398.611481,128.184464 
	C399.908325,133.407547 404.323608,135.756958 410.301971,134.400223 
	C413.131317,133.758133 415.958771,133.107788 419.950806,132.195129 
	C397.379211,171.459778 375.434753,209.633484 353.090424,248.370468 
M411.699127,313.748016 
	C402.428802,310.145233 392.948547,309.048370 382.955017,309.863098 
	C351.852661,312.398834 326.439606,339.549133 325.952637,370.752899 
	C325.375702,407.721222 355.685547,435.657166 389.751343,435.179077 
	C421.374695,434.735260 449.000427,410.817535 451.858093,377.316650 
	C454.197968,349.885925 438.093384,324.638275 411.699127,313.748016 
M309.996796,150.169601 
	C309.997650,128.509995 310.009003,106.850388 309.994202,85.190796 
	C309.988190,76.407875 307.388824,73.389618 298.519562,73.157021 
	C294.017761,73.038948 292.762360,71.357330 292.929932,67.164200 
	C293.162506,61.344948 293.204071,55.486248 292.792389,49.682384 
	C292.412933,44.332970 288.378998,40.901157 283.579529,41.050793 
	C278.865143,41.197781 276.112640,44.498447 276.025116,50.331238 
	C275.942596,55.828236 275.817810,61.335434 276.058136,66.822968 
	C276.244629,71.080879 275.202454,73.086281 270.319092,73.173088 
	C260.504333,73.347557 258.021881,76.227295 258.009766,85.934029 
	C257.984619,106.094078 257.998901,126.254181 258.002319,146.414261 
	C258.004181,157.338867 260.191742,159.794876 270.923767,159.923706 
	C274.927979,159.971771 276.163971,161.524536 276.047760,165.300995 
	C275.858276,171.459656 275.866760,177.633713 276.092957,183.790207 
	C276.160919,185.640823 276.866608,187.702423 277.913239,189.235016 
	C280.265869,192.679993 284.401184,193.105713 287.275543,191.359802 
	C289.815826,189.816818 292.076477,186.292755 292.612152,183.311264 
	C293.512360,178.300934 292.970306,173.027206 292.991211,167.864105 
	C293.022400,160.158615 293.006195,160.158569 300.509399,159.994812 
	C307.082886,159.851364 309.249420,157.813721 309.996796,150.169601 
M71.001617,158.752686 
	C71.001640,180.240219 70.986443,201.727753 71.009361,223.215256 
	C71.018242,231.547440 73.364456,234.177979 81.657204,233.886200 
	C86.846626,233.703613 88.291969,235.602310 88.105576,240.535904 
	C87.861420,246.998322 87.938774,253.536194 88.671455,259.950958 
	C89.199944,264.577911 93.445564,267.261871 97.682770,266.827087 
	C102.028091,266.381165 104.866570,263.153595 104.959961,258.214935 
	C105.073311,252.220505 105.246872,246.208908 104.922707,240.230301 
	C104.664459,235.467255 106.294991,233.789505 111.151192,233.899902 
	C120.828278,234.119919 122.986656,231.673584 122.995796,221.690826 
	C123.014259,201.535919 122.866158,181.379715 123.056198,161.226593 
	C123.158623,150.364716 119.604729,146.787766 110.100235,147.986298 
	C106.122627,148.487869 104.824722,146.524292 104.953407,142.722824 
	C105.150520,136.899658 105.031769,131.064499 104.989655,125.234863 
	C104.945473,119.118538 102.249954,115.710175 97.344612,115.449203 
	C92.174072,115.174126 88.327560,118.979027 88.081551,125.024620 
	C87.864998,130.346405 88.018967,135.683105 88.001732,141.013199 
	C87.979507,147.883011 87.976273,147.883011 81.115990,148.002502 
	C73.677429,148.132065 71.398605,150.346954 71.001617,158.752686 
M133.005356,152.211868 
	C133.516052,162.094788 135.315018,163.881042 144.878250,163.999390 
	C145.377777,164.005569 145.880737,164.044922 146.376404,164.002426 
	C149.858673,163.703995 151.102463,165.389145 151.030853,168.751480 
	C150.899673,174.910004 150.945663,181.074326 151.041626,187.234299 
	C151.066925,188.857895 151.221207,190.622360 151.879486,192.065170 
	C153.542816,195.710831 156.873688,196.960907 160.544418,196.482529 
	C165.158829,195.881180 167.538574,192.571060 167.793106,188.187180 
	C168.140060,182.211426 168.221954,176.191513 167.918549,170.215851 
	C167.676025,165.439545 169.320068,163.776093 174.161057,163.898956 
	C182.757782,164.117126 184.986526,161.614334 184.993546,152.900650 
	C185.010727,131.585510 185.012131,110.270317 184.992767,88.955185 
	C184.984955,80.362541 182.725540,77.872040 174.017868,78.105820 
	C168.997116,78.240616 167.718018,76.238060 167.924057,71.640816 
	C168.192017,65.662193 168.214142,59.634491 167.757599,53.672668 
	C167.339706,48.215523 163.719177,45.204842 158.873993,45.475624 
	C155.157532,45.683327 150.484482,49.514668 150.894028,54.648323 
	C151.369263,60.605049 150.811172,66.637054 151.060806,72.621399 
	C151.235840,76.817635 149.554001,78.481499 145.503372,77.996346 
	C136.038681,76.862709 132.959839,81.510719 132.985367,90.826889 
	C133.040573,110.976219 133.002472,131.125809 133.005356,152.211868 
M241.669495,193.766586 
	C247.355453,191.760269 247.961044,186.944107 247.976700,181.983292 
	C248.040268,161.843414 248.016205,141.703201 248.001144,121.563148 
	C247.993179,110.888405 245.542938,108.176323 235.105652,108.074028 
	C231.139099,108.035164 229.832291,106.542389 229.952499,102.735123 
	C230.146713,96.582870 230.100128,90.416832 229.925827,84.263123 
	C229.877014,82.539841 229.426025,80.554985 228.458115,79.186073 
	C226.271606,76.093773 223.209808,74.906914 219.284988,75.916908 
	C214.937393,77.035690 213.417999,80.290794 213.188049,84.060753 
	C212.823837,90.031830 212.800278,96.048615 213.075699,102.025642 
	C213.284546,106.557327 211.736176,108.181229 207.103989,108.095329 
	C198.126373,107.928856 196.012360,110.290863 196.006348,119.325378 
	C195.992264,140.464127 195.991486,161.602890 196.006622,182.741638 
	C196.013168,191.893951 197.983444,194.146805 206.971115,193.896591 
	C211.971786,193.757370 213.288025,195.730530 213.078583,200.342926 
	C212.807205,206.318573 212.798279,212.341873 213.237137,218.303391 
	C213.630005,223.640518 217.614624,227.068878 222.003586,226.689941 
	C226.492462,226.302368 229.895172,222.441345 229.979431,217.498093 
	C230.050323,213.338104 230.000046,209.175995 230.000488,205.014832 
	C230.001648,194.237946 230.000992,194.237946 241.669495,193.766586 
M350.384430,161.207413 
	C351.919556,158.488754 354.292511,155.915024 354.793762,153.017502 
	C355.549377,148.649811 354.999359,144.055878 355.000641,139.558121 
	C355.003143,130.596848 355.002106,130.596832 363.813232,129.969650 
	C368.666840,129.624176 371.906769,127.066422 371.922882,122.908905 
	C372.015747,98.921379 371.976807,74.933281 371.945709,50.945419 
	C371.941010,47.321941 370.053192,44.934814 366.553070,44.080074 
	C364.312622,43.532959 361.979431,43.059792 359.692566,43.080338 
	C356.272278,43.111069 354.893188,41.758244 354.970154,38.329086 
	C355.104767,32.335449 355.118011,26.332092 354.935028,20.340357 
	C354.764954,14.770848 351.174530,11.052478 346.419128,11.104421 
	C341.583313,11.157240 338.238464,14.757043 338.057709,20.459270 
	C337.894226,25.618383 338.014465,30.786345 338.000366,35.950378 
	C337.982300,42.575912 337.978333,42.575901 331.191589,43.051414 
	C324.035095,43.552830 321.091888,45.785530 321.066345,51.480255 
	C320.961700,74.801483 321.020142,98.123459 321.022705,121.445152 
	C321.023132,125.347992 322.642273,128.322845 326.457001,129.496872 
	C328.311584,130.067627 330.431793,130.130020 332.387146,129.946854 
	C336.856903,129.528137 338.281647,131.490402 338.064880,135.769333 
	C337.795563,141.086334 337.969208,146.427719 338.011963,151.758087 
	C338.077911,159.973618 341.312897,162.669724 350.384430,161.207413 
M59.999725,277.500000 
	C59.999718,263.511810 60.002419,249.523590 59.998756,235.535385 
	C59.996288,226.121521 57.466934,223.281693 48.066906,223.103104 
	C44.066254,223.027084 42.838425,221.477280 42.951443,217.709183 
	C43.131062,211.720505 43.140522,205.714203 42.891506,199.729111 
	C42.690235,194.891541 38.461281,190.944138 34.211308,191.114487 
	C29.487831,191.303818 26.140772,194.867157 26.033186,200.063980 
	C25.926363,205.224136 26.007292,210.388138 25.999201,215.550446 
	C25.988249,222.538544 25.985519,222.538559 19.095612,223.054947 
	C12.294311,223.564682 9.113443,225.867508 9.085925,231.137054 
	C8.961575,254.949539 9.012567,278.763062 9.040780,302.576141 
	C9.046094,307.061127 11.973349,309.049591 15.896905,309.830536 
	C17.505531,310.150726 19.229397,310.120056 20.876419,309.973846 
	C24.843847,309.621643 26.184072,311.428680 26.047935,315.252960 
	C25.846643,320.907562 25.955627,326.575378 26.016211,332.236664 
	C26.084967,338.661438 28.771149,341.808929 34.178295,341.961243 
	C39.826954,342.120331 42.764606,338.977661 42.956921,332.280701 
	C43.095490,327.455261 42.993729,322.622955 42.999908,317.793701 
	C43.009624,310.200867 43.009892,310.200897 50.574005,309.993530 
	C57.215691,309.811493 59.903057,307.165283 59.976070,300.481323 
	C60.056103,293.154999 59.997761,285.827179 59.999725,277.500000 
M475.734985,243.474976 
	C471.384277,241.116455 467.351166,241.220398 464.208466,245.419724 
	C458.353027,253.243866 466.134918,256.596375 470.677734,261.998840 
	C467.833008,261.998840 466.067383,261.998505 464.301758,261.998932 
	C445.153381,262.003357 426.004578,261.936218 406.856842,262.050110 
	C399.874390,262.091614 396.917633,265.035278 397.019531,271.148499 
	C397.109161,276.527313 400.133057,278.985016 406.820618,278.991577 
	C426.468536,279.010803 446.116486,278.991425 465.764404,279.012817 
	C467.423157,279.014618 469.081726,279.207886 472.005554,279.391785 
	C469.088745,281.590240 467.317596,282.802094 465.686310,284.179596 
	C461.933441,287.348633 461.244019,292.430969 463.959137,296.236786 
	C466.489655,299.783905 471.518646,301.016479 475.429352,298.123444 
	C484.628784,291.317810 493.651642,284.249390 502.429749,276.909149 
	C506.496063,273.508911 506.058441,266.994995 501.947906,263.729919 
	C493.500183,257.019684 484.897400,250.504654 475.734985,243.474976 
M310.391571,502.209961 
	C312.103699,500.087891 314.786102,498.191345 315.341766,495.800537 
	C316.863098,489.254730 310.325500,486.952789 306.326782,482.000031 
	C309.114777,482.000031 310.866211,482.000244 312.617645,482.000000 
	C332.616150,481.997498 352.614716,482.024139 372.613068,481.971436 
	C377.514526,481.958527 380.516937,479.397003 380.953278,475.208862 
	C381.512726,469.838776 379.670410,467.094391 374.326141,465.923126 
	C371.751404,465.358795 369.065918,465.067749 366.428925,465.056793 
	C348.763885,464.983215 331.098419,465.025421 313.433075,465.006989 
	C311.717590,465.005219 310.002258,464.846466 307.403381,464.716370 
	C309.533905,462.752563 310.902924,461.580811 312.169159,460.306946 
	C316.397003,456.053772 316.809479,451.732971 313.400055,447.974335 
	C310.031586,444.260742 305.500885,444.052246 300.933655,447.580933 
	C292.652588,453.979034 284.391693,460.404938 276.207458,466.926025 
	C271.372070,470.778778 271.367584,477.227264 276.184418,481.058289 
	C284.378937,487.575745 292.519745,494.180939 301.018524,500.282104 
	C303.280762,501.906097 306.763397,501.830170 310.391571,502.209961 
z"/>
<path fill="#242222" opacity="1.000000" stroke="none" 
	d="
M353.290344,248.088837 
	C375.434753,209.633484 397.379211,171.459778 419.950806,132.195129 
	C415.958771,133.107788 413.131317,133.758133 410.301971,134.400223 
	C404.323608,135.756958 399.908325,133.407547 398.611481,128.184464 
	C397.483459,123.641373 400.372925,119.469818 405.893158,118.046844 
	C415.403870,115.595230 424.937073,113.227196 434.486847,110.932213 
	C440.418854,109.506638 444.666901,112.040222 446.154938,117.840202 
	C448.595825,127.354088 450.973602,136.884644 453.302582,146.426590 
	C454.615295,151.804794 452.277527,156.613617 447.955322,157.744217 
	C442.641266,159.134293 438.508514,156.426544 436.910614,150.554245 
	C436.230927,148.056320 435.468506,145.580933 434.392426,141.890717 
	C428.594849,151.800964 423.386322,160.608856 418.269196,169.469498 
	C403.877502,194.389679 389.521545,219.330475 375.155518,244.265442 
	C369.341888,254.356110 363.560120,264.465240 357.713501,274.536743 
	C356.463928,276.689392 355.410858,279.293854 353.520752,280.648834 
	C351.307800,282.235260 347.965912,283.890869 345.686432,283.301483 
	C343.152283,282.646271 340.253967,279.878632 339.294159,277.353973 
	C336.964050,271.224701 335.665955,264.703064 333.557404,256.874207 
	C330.111542,264.584412 327.228668,270.878815 324.473206,277.228455 
	C314.671417,299.815765 304.902466,322.417389 295.148376,345.025330 
	C293.475403,348.902954 290.939087,351.204773 286.399567,351.020721 
	C281.879242,350.837463 279.377319,348.571564 278.255646,344.354767 
	C274.875824,331.648346 271.471924,318.948242 268.033173,306.257690 
	C267.480743,304.218994 266.701508,302.241730 265.646057,299.102783 
	C260.151276,308.514862 255.208176,316.918182 250.326035,325.356842 
	C236.584061,349.109375 222.881409,372.884735 209.124908,396.628876 
	C207.075485,400.166260 204.255676,402.746704 199.776245,401.638062 
	C194.895111,400.429962 192.923523,397.209076 192.938187,392.076019 
	C193.053436,351.745667 193.005402,311.414795 192.984268,271.084106 
	C192.983185,269.012054 192.767914,266.940125 192.583298,263.629333 
	C185.465164,269.031036 179.303360,273.692017 173.157257,278.373596 
	C144.453537,300.237732 115.734688,322.082062 87.059784,343.983917 
	C66.186920,359.926544 45.354988,375.922943 24.548103,391.951569 
	C19.382538,395.930817 13.542617,395.916626 10.297891,391.658997 
	C7.386694,387.839020 8.830057,382.310181 13.933821,378.393372 
	C33.188667,363.616608 52.456390,348.856384 71.760124,334.143555 
	C105.871269,308.144958 140.026321,282.203949 174.128922,256.194153 
	C180.865082,251.056519 187.423019,245.685852 194.111374,240.484650 
	C197.514954,237.837860 201.926285,236.422760 205.183578,239.046722 
	C207.720673,241.090546 209.760376,245.358170 209.791687,248.658676 
	C210.119003,283.153320 209.995880,317.652252 209.997482,352.149994 
	C209.997574,354.137482 209.997482,356.124969 209.997482,358.112457 
	C210.518005,358.542603 211.038513,358.972717 211.559036,359.402832 
	C211.956528,358.394745 212.235367,357.318604 212.768784,356.388458 
	C226.999924,331.573090 241.249405,306.768219 255.519577,281.975281 
	C257.427399,278.660614 259.024994,275.009521 261.582336,272.278412 
	C263.497437,270.233215 266.613617,268.644775 269.395264,268.244415 
	C273.040192,267.719849 275.697418,270.291504 276.727020,273.815216 
	C279.246552,282.437988 281.569641,291.118347 283.952393,299.780853 
	C285.396637,305.031555 286.804688,310.292236 288.622681,317.001129 
	C291.904297,309.554779 294.670349,303.399231 297.338867,297.201660 
	C307.339417,273.975464 317.316864,250.739273 327.280090,227.497025 
	C328.925201,223.659348 331.791321,221.907227 335.918976,222.034637 
	C339.902557,222.157593 342.668884,224.122223 343.736115,227.867096 
	C345.964844,235.687637 347.926178,243.584381 350.221252,252.300125 
	C351.480835,250.574966 352.285645,249.472717 353.290344,248.088837 
z"/>
<path fill="#252322" opacity="1.000000" stroke="none" 
	d="
M412.067108,313.866943 
	C438.093384,324.638275 454.197968,349.885925 451.858093,377.316650 
	C449.000427,410.817535 421.374695,434.735260 389.751343,435.179077 
	C355.685547,435.657166 325.375702,407.721222 325.952637,370.752899 
	C326.439606,339.549133 351.852661,312.398834 382.955017,309.863098 
	C392.948547,309.048370 402.428802,310.145233 412.067108,313.866943 
M391.259277,418.780945 
	C393.240784,418.529114 395.231049,418.332123 397.202454,418.017059 
	C421.744324,414.094940 439.022552,389.472107 434.738495,364.547394 
	C430.433197,339.499268 406.081879,322.071655 381.639740,326.545898 
	C356.450226,331.156982 340.615021,352.078949 342.903717,377.725220 
	C344.975922,400.945496 365.424988,418.659271 391.259277,418.780945 
z"/>
<path fill="#242222" opacity="1.000000" stroke="none" 
	d="
M309.992737,150.624573 
	C309.249420,157.813721 307.082886,159.851364 300.509399,159.994812 
	C293.006195,160.158569 293.022400,160.158615 292.991211,167.864105 
	C292.970306,173.027206 293.512360,178.300934 292.612152,183.311264 
	C292.076477,186.292755 289.815826,189.816818 287.275543,191.359802 
	C284.401184,193.105713 280.265869,192.679993 277.913239,189.235016 
	C276.866608,187.702423 276.160919,185.640823 276.092957,183.790207 
	C275.866760,177.633713 275.858276,171.459656 276.047760,165.300995 
	C276.163971,161.524536 274.927979,159.971771 270.923767,159.923706 
	C260.191742,159.794876 258.004181,157.338867 258.002319,146.414261 
	C257.998901,126.254181 257.984619,106.094078 258.009766,85.934029 
	C258.021881,76.227295 260.504333,73.347557 270.319092,73.173088 
	C275.202454,73.086281 276.244629,71.080879 276.058136,66.822968 
	C275.817810,61.335434 275.942596,55.828236 276.025116,50.331238 
	C276.112640,44.498447 278.865143,41.197781 283.579529,41.050793 
	C288.378998,40.901157 292.412933,44.332970 292.792389,49.682384 
	C293.204071,55.486248 293.162506,61.344948 292.929932,67.164200 
	C292.762360,71.357330 294.017761,73.038948 298.519562,73.157021 
	C307.388824,73.389618 309.988190,76.407875 309.994202,85.190796 
	C310.009003,106.850388 309.997650,128.509995 309.992737,150.624573 
M293.273102,139.688232 
	C293.273102,123.252106 293.273102,106.815979 293.273102,90.353165 
	C286.742249,90.353165 280.855316,90.353165 275.063477,90.353165 
	C275.063477,108.182823 275.063477,125.611992 275.063477,143.544037 
	C280.300049,143.544037 285.270721,143.714905 290.211884,143.408966 
	C291.281189,143.342758 292.244324,141.562363 293.273102,139.688232 
z"/>
<path fill="#242222" opacity="1.000000" stroke="none" 
	d="
M71.002853,158.291718 
	C71.398605,150.346954 73.677429,148.132065 81.115990,148.002502 
	C87.976273,147.883011 87.979507,147.883011 88.001732,141.013199 
	C88.018967,135.683105 87.864998,130.346405 88.081551,125.024620 
	C88.327560,118.979027 92.174072,115.174126 97.344612,115.449203 
	C102.249954,115.710175 104.945473,119.118538 104.989655,125.234863 
	C105.031769,131.064499 105.150520,136.899658 104.953407,142.722824 
	C104.824722,146.524292 106.122627,148.487869 110.100235,147.986298 
	C119.604729,146.787766 123.158623,150.364716 123.056198,161.226593 
	C122.866158,181.379715 123.014259,201.535919 122.995796,221.690826 
	C122.986656,231.673584 120.828278,234.119919 111.151192,233.899902 
	C106.294991,233.789505 104.664459,235.467255 104.922707,240.230301 
	C105.246872,246.208908 105.073311,252.220505 104.959961,258.214935 
	C104.866570,263.153595 102.028091,266.381165 97.682770,266.827087 
	C93.445564,267.261871 89.199944,264.577911 88.671455,259.950958 
	C87.938774,253.536194 87.861420,246.998322 88.105576,240.535904 
	C88.291969,235.602310 86.846626,233.703613 81.657204,233.886200 
	C73.364456,234.177979 71.018242,231.547440 71.009361,223.215256 
	C70.986443,201.727753 71.001640,180.240219 71.002853,158.291718 
M105.701584,165.024979 
	C99.742744,164.607758 93.783897,164.190536 87.651833,163.761185 
	C87.651833,182.397858 87.651833,199.933304 87.651833,217.562881 
	C93.841560,217.562881 99.711388,217.562881 105.940346,217.562881 
	C105.940346,200.094604 105.940346,183.010666 105.701584,165.024979 
z"/>
<path fill="#242222" opacity="1.000000" stroke="none" 
	d="
M133.003937,151.743591 
	C133.002472,131.125809 133.040573,110.976219 132.985367,90.826889 
	C132.959839,81.510719 136.038681,76.862709 145.503372,77.996346 
	C149.554001,78.481499 151.235840,76.817635 151.060806,72.621399 
	C150.811172,66.637054 151.369263,60.605049 150.894028,54.648323 
	C150.484482,49.514668 155.157532,45.683327 158.873993,45.475624 
	C163.719177,45.204842 167.339706,48.215523 167.757599,53.672668 
	C168.214142,59.634491 168.192017,65.662193 167.924057,71.640816 
	C167.718018,76.238060 168.997116,78.240616 174.017868,78.105820 
	C182.725540,77.872040 184.984955,80.362541 184.992767,88.955185 
	C185.012131,110.270317 185.010727,131.585510 184.993546,152.900650 
	C184.986526,161.614334 182.757782,164.117126 174.161057,163.898956 
	C169.320068,163.776093 167.676025,165.439545 167.918549,170.215851 
	C168.221954,176.191513 168.140060,182.211426 167.793106,188.187180 
	C167.538574,192.571060 165.158829,195.881180 160.544418,196.482529 
	C156.873688,196.960907 153.542816,195.710831 151.879486,192.065170 
	C151.221207,190.622360 151.066925,188.857895 151.041626,187.234299 
	C150.945663,181.074326 150.899673,174.910004 151.030853,168.751480 
	C151.102463,165.389145 149.858673,163.703995 146.376404,164.002426 
	C145.880737,164.044922 145.377777,164.005569 144.878250,163.999390 
	C135.315018,163.881042 133.516052,162.094788 133.003937,151.743591 
M152.758011,94.101746 
	C149.088669,93.780792 149.914429,96.493530 149.909271,98.476898 
	C149.870773,113.271523 149.880142,128.066315 149.899689,142.861008 
	C149.901779,144.454742 150.064682,146.048279 150.155106,147.680099 
	C156.362930,147.680099 162.117950,147.680099 168.016418,147.680099 
	C168.233978,146.662445 168.548203,145.873779 168.549835,145.084442 
	C168.582489,129.292450 168.529877,113.500069 168.626862,97.708580 
	C168.645020,94.750160 167.308594,93.993996 164.685287,94.073257 
	C161.031540,94.183655 157.371902,94.098793 152.758011,94.101746 
z"/>
<path fill="#242222" opacity="1.000000" stroke="none" 
	d="
M241.252747,193.832520 
	C230.000992,194.237946 230.001648,194.237946 230.000488,205.014832 
	C230.000046,209.175995 230.050323,213.338104 229.979431,217.498093 
	C229.895172,222.441345 226.492462,226.302368 222.003586,226.689941 
	C217.614624,227.068878 213.630005,223.640518 213.237137,218.303391 
	C212.798279,212.341873 212.807205,206.318573 213.078583,200.342926 
	C213.288025,195.730530 211.971786,193.757370 206.971115,193.896591 
	C197.983444,194.146805 196.013168,191.893951 196.006622,182.741638 
	C195.991486,161.602890 195.992264,140.464127 196.006348,119.325378 
	C196.012360,110.290863 198.126373,107.928856 207.103989,108.095329 
	C211.736176,108.181229 213.284546,106.557327 213.075699,102.025642 
	C212.800278,96.048615 212.823837,90.031830 213.188049,84.060753 
	C213.417999,80.290794 214.937393,77.035690 219.284988,75.916908 
	C223.209808,74.906914 226.271606,76.093773 228.458115,79.186073 
	C229.426025,80.554985 229.877014,82.539841 229.925827,84.263123 
	C230.100128,90.416832 230.146713,96.582870 229.952499,102.735123 
	C229.832291,106.542389 231.139099,108.035164 235.105652,108.074028 
	C245.542938,108.176323 247.993179,110.888405 248.001144,121.563148 
	C248.016205,141.703201 248.040268,161.843414 247.976700,181.983292 
	C247.961044,186.944107 247.355453,191.760269 241.252747,193.832520 
M212.177155,148.499969 
	C212.177155,158.117615 212.177155,167.735260 212.177155,177.490707 
	C218.773285,177.490707 224.784592,177.490707 230.762955,177.490707 
	C230.762955,159.601852 230.762955,142.163620 230.762955,124.575058 
	C224.474594,124.575058 218.464874,124.575058 212.177170,124.575058 
	C212.177170,132.525787 212.177170,140.012894 212.177155,148.499969 
z"/>
<path fill="#242222" opacity="1.000000" stroke="none" 
	d="
M350.022064,161.372971 
	C341.312897,162.669724 338.077911,159.973618 338.011963,151.758087 
	C337.969208,146.427719 337.795563,141.086334 338.064880,135.769333 
	C338.281647,131.490402 336.856903,129.528137 332.387146,129.946854 
	C330.431793,130.130020 328.311584,130.067627 326.457001,129.496872 
	C322.642273,128.322845 321.023132,125.347992 321.022705,121.445152 
	C321.020142,98.123459 320.961700,74.801483 321.066345,51.480255 
	C321.091888,45.785530 324.035095,43.552830 331.191589,43.051414 
	C337.978333,42.575901 337.982300,42.575912 338.000366,35.950378 
	C338.014465,30.786345 337.894226,25.618383 338.057709,20.459270 
	C338.238464,14.757043 341.583313,11.157240 346.419128,11.104421 
	C351.174530,11.052478 354.764954,14.770848 354.935028,20.340357 
	C355.118011,26.332092 355.104767,32.335449 354.970154,38.329086 
	C354.893188,41.758244 356.272278,43.111069 359.692566,43.080338 
	C361.979431,43.059792 364.312622,43.532959 366.553070,44.080074 
	C370.053192,44.934814 371.941010,47.321941 371.945709,50.945419 
	C371.976807,74.933281 372.015747,98.921379 371.922882,122.908905 
	C371.906769,127.066422 368.666840,129.624176 363.813232,129.969650 
	C355.002106,130.596832 355.003143,130.596848 355.000641,139.558121 
	C354.999359,144.055878 355.549377,148.649811 354.793762,153.017502 
	C354.292511,155.915024 351.919556,158.488754 350.022064,161.372971 
M353.071075,59.998531 
	C347.837189,59.998531 342.603302,59.998531 337.409973,59.998531 
	C337.409973,78.152786 337.409973,95.634216 337.409973,113.078262 
	C343.167145,113.078262 348.582672,113.078262 354.731964,113.141953 
	C355.096283,112.676445 355.777374,112.212189 355.779205,111.745262 
	C355.843811,95.256371 355.867371,78.767090 355.775330,62.278557 
	C355.771484,61.586838 354.606842,60.901600 353.071075,59.998531 
z"/>
<path fill="#242222" opacity="1.000000" stroke="none" 
	d="
M59.999725,278.000000 
	C59.997761,285.827179 60.056103,293.154999 59.976070,300.481323 
	C59.903057,307.165283 57.215691,309.811493 50.574005,309.993530 
	C43.009892,310.200897 43.009624,310.200867 42.999908,317.793701 
	C42.993729,322.622955 43.095490,327.455261 42.956921,332.280701 
	C42.764606,338.977661 39.826954,342.120331 34.178295,341.961243 
	C28.771149,341.808929 26.084967,338.661438 26.016211,332.236664 
	C25.955627,326.575378 25.846643,320.907562 26.047935,315.252960 
	C26.184072,311.428680 24.843847,309.621643 20.876419,309.973846 
	C19.229397,310.120056 17.505531,310.150726 15.896905,309.830536 
	C11.973349,309.049591 9.046094,307.061127 9.040780,302.576141 
	C9.012567,278.763062 8.961575,254.949539 9.085925,231.137054 
	C9.113443,225.867508 12.294311,223.564682 19.095612,223.054947 
	C25.985519,222.538559 25.988249,222.538544 25.999201,215.550446 
	C26.007292,210.388138 25.926363,205.224136 26.033186,200.063980 
	C26.140772,194.867157 29.487831,191.303818 34.211308,191.114487 
	C38.461281,190.944138 42.690235,194.891541 42.891506,199.729111 
	C43.140522,205.714203 43.131062,211.720505 42.951443,217.709183 
	C42.838425,221.477280 44.066254,223.027084 48.066906,223.103104 
	C57.466934,223.281693 59.996288,226.121521 59.998756,235.535385 
	C60.002419,249.523590 59.999718,263.511810 59.999725,278.000000 
M43.753284,255.505722 
	C43.753284,250.545746 43.753284,245.585785 43.753284,240.318390 
	C37.227394,240.318390 31.209988,240.318390 25.205349,240.318390 
	C25.205349,258.145355 25.205349,275.592621 25.205349,293.604156 
	C30.051630,293.604156 34.682987,293.477020 39.303501,293.646149 
	C42.731789,293.771606 43.893131,292.499054 43.827324,289.000610 
	C43.623619,278.171600 43.753124,267.336273 43.753284,255.505722 
z"/>
<path fill="#242222" opacity="1.000000" stroke="none" 
	d="
M476.046692,243.692139 
	C484.897400,250.504654 493.500183,257.019684 501.947906,263.729919 
	C506.058441,266.994995 506.496063,273.508911 502.429749,276.909149 
	C493.651642,284.249390 484.628784,291.317810 475.429352,298.123444 
	C471.518646,301.016479 466.489655,299.783905 463.959137,296.236786 
	C461.244019,292.430969 461.933441,287.348633 465.686310,284.179596 
	C467.317596,282.802094 469.088745,281.590240 472.005554,279.391785 
	C469.081726,279.207886 467.423157,279.014618 465.764404,279.012817 
	C446.116486,278.991425 426.468536,279.010803 406.820618,278.991577 
	C400.133057,278.985016 397.109161,276.527313 397.019531,271.148499 
	C396.917633,265.035278 399.874390,262.091614 406.856842,262.050110 
	C426.004578,261.936218 445.153381,262.003357 464.301758,261.998932 
	C466.067383,261.998505 467.833008,261.998840 470.677734,261.998840 
	C466.134918,256.596375 458.353027,253.243866 464.208466,245.419724 
	C467.351166,241.220398 471.384277,241.116455 476.046692,243.692139 
z"/>
<path fill="#242222" opacity="1.000000" stroke="none" 
	d="
M310.038635,502.372345 
	C306.763397,501.830170 303.280762,501.906097 301.018524,500.282104 
	C292.519745,494.180939 284.378937,487.575745 276.184418,481.058289 
	C271.367584,477.227264 271.372070,470.778778 276.207458,466.926025 
	C284.391693,460.404938 292.652588,453.979034 300.933655,447.580933 
	C305.500885,444.052246 310.031586,444.260742 313.400055,447.974335 
	C316.809479,451.732971 316.397003,456.053772 312.169159,460.306946 
	C310.902924,461.580811 309.533905,462.752563 307.403381,464.716370 
	C310.002258,464.846466 311.717590,465.005219 313.433075,465.006989 
	C331.098419,465.025421 348.763885,464.983215 366.428925,465.056793 
	C369.065918,465.067749 371.751404,465.358795 374.326141,465.923126 
	C379.670410,467.094391 381.512726,469.838776 380.953278,475.208862 
	C380.516937,479.397003 377.514526,481.958527 372.613068,481.971436 
	C352.614716,482.024139 332.616150,481.997498 312.617645,482.000000 
	C310.866211,482.000244 309.114777,482.000031 306.326782,482.000031 
	C310.325500,486.952789 316.863098,489.254730 315.341766,495.800537 
	C314.786102,498.191345 312.103699,500.087891 310.038635,502.372345 
z"/>
<path fill="#FBC037" opacity="1.000000" stroke="none" 
	d="
M390.807068,418.805115 
	C365.424988,418.659271 344.975922,400.945496 342.903717,377.725220 
	C340.615021,352.078949 356.450226,331.156982 381.639740,326.545898 
	C406.081879,322.071655 430.433197,339.499268 434.738495,364.547394 
	C439.022552,389.472107 421.744324,414.094940 397.202454,418.017059 
	C395.231049,418.332123 393.240784,418.529114 390.807068,418.805115 
M365.695801,355.312500 
	C364.397156,362.858917 366.372803,369.574585 372.673401,373.830566 
	C376.946869,376.717255 382.289703,378.055389 387.212646,379.933014 
	C390.140259,381.049561 393.391144,381.475555 396.114410,382.928528 
	C399.123566,384.534027 399.077393,387.603729 396.335693,389.272461 
	C390.849365,392.611725 380.944733,391.403229 378.912659,384.611969 
	C377.422455,379.631622 372.801788,377.925171 368.617584,379.637421 
	C364.361450,381.379028 362.592682,385.468567 364.216187,390.439819 
	C366.407318,397.149170 371.040039,401.648560 377.290588,404.797211 
	C378.903717,405.609802 379.852661,407.651123 381.295227,408.912445 
	C383.654297,410.975098 385.916595,413.894592 388.678528,414.566315 
	C392.339417,415.456665 394.982819,412.688965 396.679779,409.165436 
	C397.472260,407.520020 399.026001,405.805420 400.660431,405.075317 
	C408.553314,401.549561 414.030273,396.331482 414.306702,387.149658 
	C414.641083,376.044861 407.519867,368.206329 394.456818,365.111450 
	C391.225189,364.345825 387.884857,363.853546 384.817657,362.661377 
	C383.392761,362.107574 381.479462,360.056549 381.617889,358.903992 
	C381.807861,357.322266 383.443848,355.379639 384.974762,354.592743 
	C389.730011,352.148529 394.371948,354.055908 397.917725,359.413971 
	C400.690857,363.604370 404.663300,364.894531 408.589844,362.880066 
	C412.624969,360.809906 414.567413,355.908142 411.745117,351.863861 
	C408.702667,347.503998 404.356140,344.057983 400.607544,340.185181 
	C399.257721,338.790588 397.547913,337.516815 396.780670,335.833252 
	C395.175629,332.311310 392.944183,329.989838 388.924042,330.009369 
	C384.902008,330.028900 382.656525,332.360565 381.139954,335.921387 
	C380.471405,337.491150 379.233307,339.206787 377.785309,339.988434 
	C371.764313,343.238678 367.393311,347.674866 365.695801,355.312500 
z"/>
<path fill="#63F4BF" opacity="1.000000" stroke="none" 
	d="
M293.264740,140.129883 
	C292.244324,141.562363 291.281189,143.342758 290.211884,143.408966 
	C285.270721,143.714905 280.300049,143.544037 275.063477,143.544037 
	C275.063477,125.611992 275.063477,108.182823 275.063477,90.353165 
	C280.855316,90.353165 286.742249,90.353165 293.273102,90.353165 
	C293.273102,106.815979 293.273102,123.252106 293.264740,140.129883 
z"/>
<path fill="#5FEFBA" opacity="1.000000" stroke="none" 
	d="
M105.820969,165.475861 
	C105.940346,183.010666 105.940346,200.094604 105.940346,217.562881 
	C99.711388,217.562881 93.841560,217.562881 87.651833,217.562881 
	C87.651833,199.933304 87.651833,182.397858 87.651833,163.761185 
	C93.783897,164.190536 99.742744,164.607758 105.820969,165.475861 
z"/>
<path fill="#5FEFBA" opacity="1.000000" stroke="none" 
	d="
M153.236389,94.099625 
	C157.371902,94.098793 161.031540,94.183655 164.685287,94.073257 
	C167.308594,93.993996 168.645020,94.750160 168.626862,97.708580 
	C168.529877,113.500069 168.582489,129.292450 168.549835,145.084442 
	C168.548203,145.873779 168.233978,146.662445 168.016418,147.680099 
	C162.117950,147.680099 156.362930,147.680099 150.155106,147.680099 
	C150.064682,146.048279 149.901779,144.454742 149.899689,142.861008 
	C149.880142,128.066315 149.870773,113.271523 149.909271,98.476898 
	C149.914429,96.493530 149.088669,93.780792 153.236389,94.099625 
z"/>
<path fill="#F9606B" opacity="1.000000" stroke="none" 
	d="
M212.177155,147.999985 
	C212.177170,140.012894 212.177170,132.525787 212.177170,124.575058 
	C218.464874,124.575058 224.474594,124.575058 230.762955,124.575058 
	C230.762955,142.163620 230.762955,159.601852 230.762955,177.490707 
	C224.784592,177.490707 218.773285,177.490707 212.177155,177.490707 
	C212.177155,167.735260 212.177155,158.117615 212.177155,147.999985 
z"/>
<path fill="#63F4BF" opacity="1.000000" stroke="none" 
	d="
M353.998169,113.078262 
	C348.582672,113.078262 343.167145,113.078262 337.409973,113.078262 
	C337.409973,95.634216 337.409973,78.152786 337.409973,59.998531 
	C342.603302,59.998531 347.837189,59.998531 353.520996,60.560997 
	C353.980011,78.441734 353.989075,95.759995 353.998169,113.078262 
z"/>
<path fill="#5FEFBA" opacity="1.000000" stroke="none" 
	d="
M354.365051,113.110107 
	C353.989075,95.759995 353.980011,78.441734 353.976929,60.668404 
	C354.606842,60.901600 355.771484,61.586838 355.775330,62.278557 
	C355.867371,78.767090 355.843811,95.256371 355.779205,111.745262 
	C355.777374,112.212189 355.096283,112.676445 354.365051,113.110107 
z"/>
<path fill="#5FEFBA" opacity="1.000000" stroke="none" 
	d="
M43.753281,256.004578 
	C43.753124,267.336273 43.623619,278.171600 43.827324,289.000610 
	C43.893131,292.499054 42.731789,293.771606 39.303501,293.646149 
	C34.682987,293.477020 30.051630,293.604156 25.205349,293.604156 
	C25.205349,275.592621 25.205349,258.145355 25.205349,240.318390 
	C31.209988,240.318390 37.227394,240.318390 43.753284,240.318390 
	C43.753284,245.585785 43.753284,250.545746 43.753281,256.004578 
z"/>
<path fill="#282522" opacity="1.000000" stroke="none" 
	d="
M365.773193,354.918091 
	C367.393311,347.674866 371.764313,343.238678 377.785309,339.988434 
	C379.233307,339.206787 380.471405,337.491150 381.139954,335.921387 
	C382.656525,332.360565 384.902008,330.028900 388.924042,330.009369 
	C392.944183,329.989838 395.175629,332.311310 396.780670,335.833252 
	C397.547913,337.516815 399.257721,338.790588 400.607544,340.185181 
	C404.356140,344.057983 408.702667,347.503998 411.745117,351.863861 
	C414.567413,355.908142 412.624969,360.809906 408.589844,362.880066 
	C404.663300,364.894531 400.690857,363.604370 397.917725,359.413971 
	C394.371948,354.055908 389.730011,352.148529 384.974762,354.592743 
	C383.443848,355.379639 381.807861,357.322266 381.617889,358.903992 
	C381.479462,360.056549 383.392761,362.107574 384.817657,362.661377 
	C387.884857,363.853546 391.225189,364.345825 394.456818,365.111450 
	C407.519867,368.206329 414.641083,376.044861 414.306702,387.149658 
	C414.030273,396.331482 408.553314,401.549561 400.660431,405.075317 
	C399.026001,405.805420 397.472260,407.520020 396.679779,409.165436 
	C394.982819,412.688965 392.339417,415.456665 388.678528,414.566315 
	C385.916595,413.894592 383.654297,410.975098 381.295227,408.912445 
	C379.852661,407.651123 378.903717,405.609802 377.290588,404.797211 
	C371.040039,401.648560 366.407318,397.149170 364.216187,390.439819 
	C362.592682,385.468567 364.361450,381.379028 368.617584,379.637421 
	C372.801788,377.925171 377.422455,379.631622 378.912659,384.611969 
	C380.944733,391.403229 390.849365,392.611725 396.335693,389.272461 
	C399.077393,387.603729 399.123566,384.534027 396.114410,382.928528 
	C393.391144,381.475555 390.140259,381.049561 387.212646,379.933014 
	C382.289703,378.055389 376.946869,376.717255 372.673401,373.830566 
	C366.372803,369.574585 364.397156,362.858917 365.773193,354.918091 
z"/>
</svg>